# xmcd
#
# Track frame offsets:
#	150
#	30897
#	52382
#	73765
#	96620
#	113875
#	136835
#	158872
#	180700
#	201652
#	222485
#	244225
#	270322
#	291567
#	312772
#	326807
#
# Disc length: 4498 seconds
#
# Revision: 3
# Processed by: cddbd v1.5.2PL0 Copyright (c) Steve Scherf et al.
# Submitted via: audiograbber 1.83.01
#
DISCID=05119010
DTITLE=Daz Dillinger - Retaliation, Revenge And Get Back
DYEAR=1998
DGENRE=Rap
TTITLE0=Daz Dillinger, Bad Ass, Big Tray Dee, Kurupt, Soopafly, Technique, Ty C
TTITLE0=uzz - Gang Bangin Ass Criminal
TTITLE1=Daz Dillinger, Kurupt Tha Kingpin, Prince Ital Joe - Its Going Down
TTITLE2=Daz Dillinger, B-Legit - Playa Partners
TTITLE3=Daz Dillinger, Too Short - It Might Sound Crazy
TTITLE4=Daz Dillinger, Kurupt Tha Kingpin, Prince Ital Joe - Our Daily Bread
TTITLE5=Daz Dillinger, Lady "V" - In California
TTITLE6=Daz Dillinger, 2Pac, Outlawz, Kurupt Tha Kingpin - Initiated
TTITLE7=Daz Dillinger, Tray Deee, J-Money - Oh No
TTITLE8=Daz Dillinger - Retaliation, Revenge And Get Back
TTITLE9=Daz Dillinger, Snoop Doggy Dogg, Nate Dogg - O.G.
TTITLE10=Daz Dillinger And Tha Gang - Baby Mama Drama
TTITLE11=Daz Dillinger, Lady "V", Big Pimpin - Only For U
TTITLE12=Daz Dillinger, WC - Ridin High
TTITLE13=Daz Dillinger, Bad A$$, MC Eiht - The Ultimate Come Up
TTITLE14=Daz Dillinger And Tha Gang - Thank God For My Life
TTITLE15=Daz Dillinger - Outro "Why Do We Bang"
EXTD=www.RapMusicGuide.com\n
EXTT0=
EXTT1=
EXTT2=
EXTT3=
EXTT4=
EXTT5=
EXTT6=
EXTT7=
EXTT8=
EXTT9=
EXTT10=
EXTT11=
EXTT12=
EXTT13=
EXTT14=
EXTT15=
PLAYORDER=
